<svg xmlns="http://www.w3.org/2000/svg" width="24.688" height="20" viewBox="0 0 24.688 20">
  <path id="hamburger_menu" data-name="hamburger menu" d="M3.763,10H24.924a1.894,1.894,0,0,0,1.763-2,1.894,1.894,0,0,0-1.763-2H3.763A1.894,1.894,0,0,0,2,8,1.894,1.894,0,0,0,3.763,10Zm21.161,4H3.763A1.894,1.894,0,0,0,2,16a1.894,1.894,0,0,0,1.763,2H24.924a1.894,1.894,0,0,0,1.763-2A1.894,1.894,0,0,0,24.924,14Zm0,8H3.763a2.016,2.016,0,0,0,0,4H24.924a2.016,2.016,0,0,0,0-4Z" transform="translate(-2 -6)"/>
</svg>
